<svg xmlns="http://www.w3.org/2000/svg" width="203" height="115" viewBox="0 0 203 115">
  <g id="cloud_sstorage" data-name="cloud sstorage" transform="translate(-89 -1310)">
    <g id="Union_1" data-name="Union 1" transform="translate(153 1310)" fill="#165cff">
      <path d="M 64.66680145263672 69.49930572509766 L 23.33339881896973 69.49930572509766 C 20.25058746337891 69.49930572509766 17.26029968261719 68.89568328857422 14.44557666778564 67.70521545410156 C 11.72664356231689 66.55525970458984 9.284699440002441 64.90888214111328 7.187588214874268 62.81182861328125 C 5.090487957000732 60.71477127075195 3.444077014923096 58.27292633056641 2.294099092483521 55.55409240722656 C 1.103621363639832 52.73952865600586 0.4999991953372955 49.74940490722656 0.4999991953372955 46.66680526733398 C 0.4999991953372955 40.97404861450195 2.606965780258179 35.52112579345703 6.432787895202637 31.31250381469727 C 10.23269939422607 27.13238143920898 15.40695476531982 24.51797103881836 21.00241088867188 23.95088195800781 L 21.45199966430664 23.90531539916992 L 21.45199966430664 23.45342636108398 L 21.45199966430664 23.04720497131348 C 21.45199966430664 20.00312614440918 22.04811096191406 17.05037117004395 23.22378730773926 14.2709493637085 C 24.35945510864258 11.58610439300537 25.98535537719727 9.174771308898926 28.05633163452148 7.103904724121094 C 30.12728881835938 5.033060073852539 32.53873062133789 3.407260179519653 35.22368621826172 2.271660089492798 C 38.00318908691406 1.096071243286133 40.95599746704102 0.5000045895576477 44.00009918212891 0.5000045895576477 C 47.0442008972168 0.5000045895576477 49.99695587158203 1.096071243286133 52.7763671875 2.271660089492798 C 55.46121978759766 3.407248973846436 57.87255477905273 5.0330491065979 59.94340896606445 7.103893280029297 C 62.01425552368164 9.174749374389648 63.64005661010742 11.58608245849609 64.77564239501953 14.2709379196167 C 65.95123291015625 17.05034828186035 66.54730224609375 20.00310516357422 66.54730224609375 23.04720497131348 L 66.54730224609375 23.45334815979004 L 66.54730224609375 23.90523719787598 L 66.99687957763672 23.95080375671387 C 72.59217834472656 24.51791572570801 77.76651763916016 27.13234901428223 81.56673431396484 31.3124828338623 C 85.39299011230469 35.52125930786133 87.50019836425781 40.97419357299805 87.50019836425781 46.66680526733398 C 87.50019836425781 49.74938201904297 86.89653015136719 52.73949432373047 85.70597839355469 55.55408096313477 C 84.55594635009766 58.27289199829102 82.90946960449219 60.71474838256836 80.81227874755859 62.81181716918945 C 78.71511077880859 64.90887451171875 76.27315521240234 66.55525207519531 73.55422973632812 67.70521545410156 C 70.73956298828125 68.89568328857422 67.74939727783203 69.49930572509766 64.66680145263672 69.49930572509766 Z" stroke="none"/>
      <path d="M 64.66680145263672 68.99929809570312 C 67.68213653564453 68.99929809570312 70.60677337646484 68.40896606445312 73.35947418212891 67.24470520019531 C 76.01879119873047 66.11994171142578 78.40733337402344 64.50954437255859 80.45874786376953 62.45824813842773 C 82.51016998291016 60.40693283081055 84.12066650390625 58.01850891113281 85.24549102783203 55.35929489135742 C 86.40982818603516 52.60667419433594 87.00020599365234 49.68209457397461 87.00020599365234 46.66680145263672 C 87.00020599365234 41.09885025024414 84.93917083740234 35.76536560058594 81.19676971435547 31.64882469177246 C 77.47967529296875 27.56011962890625 72.41881561279297 25.00290870666504 66.94646453857422 24.44826126098633 L 66.04730224609375 24.35712051391602 L 66.04730224609375 23.04720115661621 C 66.04730224609375 20.07039070129395 65.46452331542969 17.18315505981445 64.31514739990234 14.46570777893066 C 63.20476913452148 11.84046077728271 61.61494445800781 9.482542991638184 59.58985137939453 7.457448959350586 C 57.56476974487305 5.432354927062988 55.20684051513672 3.842543125152588 52.58159255981445 2.732154846191406 C 49.8641471862793 1.582778453826904 46.97690963745117 1.000002026557922 44.00009918212891 1.000002026557922 C 41.02327728271484 1.000002026557922 38.13599395751953 1.58279025554657 35.41845321655273 2.732166767120361 C 32.79310989379883 3.842555046081543 30.43508720397949 5.43237829208374 28.40987586975098 7.457472801208496 C 26.38466453552246 9.482578277587891 24.79474639892578 11.84049606323242 23.68428802490234 14.46573162078857 C 22.53482818603516 17.18318939208984 21.95200538635254 20.07041358947754 21.95200538635254 23.04720115661621 L 21.95200538635254 24.35720252990723 L 21.05284118652344 24.44833183288574 C 15.580322265625 25.00296592712402 10.51954650878906 27.56015586853027 6.802769660949707 31.64883804321289 C 3.060805082321167 35.76521301269531 1.000005006790161 41.09869766235352 1.000005006790161 46.66680145263672 C 1.000005006790161 49.68213272094727 1.590334534645081 52.60670852661133 2.754605054855347 55.35931777954102 C 3.879369735717773 58.0185432434082 5.489793300628662 60.40696716308594 7.541134357452393 62.45825958251953 C 9.592498779296875 64.50956726074219 11.98101711273193 66.11995697021484 14.64034652709961 67.24470520019531 C 17.39309883117676 68.40896606445312 20.31786346435547 68.99929809570312 23.33340454101562 68.99929809570312 L 64.66680145263672 68.99929809570312 M 64.66680145263672 69.99929809570312 L 23.33340454101562 69.99929809570312 C 10.44629955291748 69.99929809570312 5.064481683803024e-06 59.55300140380859 5.064481683803024e-06 46.66680145263672 C 5.064481683803024e-06 34.58356857299805 9.183487892150879 24.64616584777832 20.95200538635254 23.45342636108398 L 20.95200538635254 23.04720115661621 C 20.95200538635254 10.31850814819336 31.27140426635742 1.989028078241972e-06 44.00009918212891 1.989028078241972e-06 C 56.72880554199219 1.989028078241972e-06 67.04730224609375 10.31850814819336 67.04730224609375 23.04720115661621 L 67.04730224609375 23.45335578918457 C 78.81517028808594 24.64608383178711 88.00020599365234 34.58356857299805 88.00020599365234 46.66680145263672 C 88.00020599365234 59.55300140380859 77.55300140380859 69.99929809570312 64.66680145263672 69.99929809570312 Z" stroke="none" fill="#fff"/>
    </g>
    <text id="Cloud_Storage" data-name="Cloud Storage" transform="translate(89 1415)" fill="#fff" font-size="28" font-family="Poppins-Medium, Poppins" font-weight="500"><tspan x="0" y="0">Cloud Storage</tspan></text>
  </g>
</svg>
