<svg xmlns="http://www.w3.org/2000/svg" width="735.326" height="635.13" viewBox="0 0 735.326 635.13">
  <g id="Group_32" data-name="Group 32" transform="translate(-1551.225 -734.87)">
    <g id="Group_31" data-name="Group 31">
      <g id="Group_30" data-name="Group 30">
        <g id="Group_29" data-name="Group 29">
          <g id="Group_9" data-name="Group 9">
            <path id="Rectangle_18" data-name="Rectangle 18" d="M0,0H266a0,0,0,0,1,0,0V490a0,0,0,0,1,0,0h0A266,266,0,0,1,0,224V0A0,0,0,0,1,0,0Z" transform="translate(1551.225 1005.859) rotate(-42)" fill="#165cff"/>
            <path id="Rectangle_19" data-name="Rectangle 19" d="M0,0H266a0,0,0,0,1,0,0V490a0,0,0,0,1,0,0h0A266,266,0,0,1,0,224V0A0,0,0,0,1,0,0Z" transform="translate(1634.225 1005.859) rotate(-42)" fill="#0046e9"/>
            <path id="Rectangle_20" data-name="Rectangle 20" d="M0,0H266a0,0,0,0,1,0,0V490a0,0,0,0,1,0,0h0A266,266,0,0,1,0,224V0A0,0,0,0,1,0,0Z" transform="translate(1710.225 1005.859) rotate(-42)" fill="#003ece"/>
            <path id="Rectangle_21" data-name="Rectangle 21" d="M0,0H266a0,0,0,0,1,0,0V490a0,0,0,0,1,0,0h0A266,266,0,0,1,0,224V0A0,0,0,0,1,0,0Z" transform="translate(1724 938.924) rotate(-42)" fill="#004dff"/>
            <path id="Rectangle_22" data-name="Rectangle 22" d="M0,0H266a0,0,0,0,1,0,0V490a0,0,0,0,1,0,0h0A266,266,0,0,1,0,224V0A0,0,0,0,1,0,0Z" transform="translate(1761 912.859) rotate(-42)" fill="#003fd2"/>
          </g>
        </g>
      </g>
    </g>
  </g>
</svg>
