<svg id="Group_1" data-name="Group 1" xmlns="http://www.w3.org/2000/svg" width="52.958" height="52.958" viewBox="0 0 52.958 52.958">
  <path id="Path_1" data-name="Path 1" d="M26.479,0A26.479,26.479,0,1,0,52.958,26.479,26.557,26.557,0,0,0,26.479,0Zm0,8.826c4.854,0,8.826,4.854,8.826,11.033s-3.972,11.033-8.826,11.033-8.826-4.854-8.826-11.033S21.624,8.826,26.479,8.826Zm14.563,34.2a22.415,22.415,0,0,1-14.563,5.516,22.415,22.415,0,0,1-14.563-5.516,2.145,2.145,0,0,1-.221-3.089,19.829,19.829,0,0,1,9.268-5.958,12.155,12.155,0,0,0,11.033,0,18.8,18.8,0,0,1,9.268,5.958A1.984,1.984,0,0,1,41.042,43.028Z" fill="#fff"/>
</svg>
